<svg role="img" viewBox="0 0 16 16" xmlns="http://www.w3.org/2000/svg"><title>License</title><path fill-rule="evenodd" fill="#8b949e" d="m8.75,0.75a0.75,0.75 0 0 0 -1.5,0l0,1.25l-0.984,0c-0.305,0 -0.604,0.08 -0.869,0.23l-1.288,0.737a0.25,0.25 0 0 1 -0.125,0.033l-2.234,0a0.75,0.75 0 0 0 0,1.5l0.428,0l-2.112,4.692a0.75,0.75 0 0 0 0.154,0.838l0.53,-0.53l-0.53,0.53l0,0.001l0.002,0.002l0.002,0.002l0.006,0.006l0.016,0.015l0.045,0.04a3.514,3.514 0 0 0 0.686,0.45a4.492,4.492 0 0 0 2.023,0.454c0.88,0 1.556,-0.22 2.023,-0.454a3.515,3.515 0 0 0 0.686,-0.45l0.045,-0.04l0.016,-0.015l0.006,-0.006l0.002,-0.002l0.001,-0.002l-0.529,-0.531l0.53,0.53a0.75,0.75 0 0 0 0.154,-0.838l-2.112,-4.692l0.162,0c0.305,0 0.604,-0.08 0.869,-0.23l1.289,-0.737a0.25,0.25 0 0 1 0.124,-0.033l0.984,0l0,9.5l-2.5,0a0.75,0.75 0 0 0 0,1.5l6.5,0a0.75,0.75 0 0 0 0,-1.5l-2.5,0l0,-9.5l0.984,0a0.25,0.25 0 0 1 0.124,0.033l1.29,0.736c0.264,0.152 0.563,0.231 0.868,0.231l0.162,0l-2.112,4.692a0.75,0.75 0 0 0 0.154,0.838l0.53,-0.53l-0.53,0.53l0,0.001l0.002,0.002l0.002,0.002l0.006,0.006l0.016,0.015l0.045,0.04a3.517,3.517 0 0 0 0.686,0.45a4.492,4.492 0 0 0 2.023,0.454c0.88,0 1.556,-0.22 2.023,-0.454a3.512,3.512 0 0 0 0.686,-0.45l0.045,-0.04l0.01,-0.01l0.006,-0.005l0.006,-0.006l0.002,-0.002l0.001,-0.002l-0.529,-0.531l0.53,0.53a0.75,0.75 0 0 0 0.154,-0.838l-2.111,-4.692l0.427,0a0.75,0.75 0 0 0 0,-1.5l-2.234,0a0.25,0.25 0 0 1 -0.124,-0.033l-1.29,-0.736a1.75,1.75 0 0 0 -0.867,-0.231l-0.985,0l0,-1.25zm-7.055,8.477c0.285,0.135 0.718,0.273 1.305,0.273s1.02,-0.138 1.305,-0.273l-1.305,-2.9l-1.305,2.9zm10,0c0.285,0.135 0.718,0.273 1.305,0.273s1.02,-0.138 1.305,-0.273l-1.305,-2.9l-1.305,2.9z"/></svg>